<svg version="1.1" id="Layer_1" xmlns="http://www.w3.org/2000/svg" xmlns:xlink="http://www.w3.org/1999/xlink" x="0px" y="0px"
	 width="100%" viewBox="0 0 1500 1500" enable-background="new 0 0 1500 1500" xml:space="preserve">
<path fill="#000000" opacity="1.000000" stroke="none" 
	d="
M682.000000,1501.000000 
	C454.666718,1501.000000 227.833420,1501.000000 1.000091,1501.000000 
	C1.000061,1001.000122 1.000061,501.000275 1.000030,1.000293 
	C500.999786,1.000195 1000.999573,1.000195 1500.999512,1.000098 
	C1500.999756,500.999664 1500.999756,1000.999329 1500.999878,1500.999512 
	C1228.166626,1501.000000 955.333313,1501.000000 682.000000,1501.000000 
M729.987366,328.993652 
	C713.898804,330.646790 697.669739,331.471436 681.758301,334.169342 
	C663.183105,337.318848 644.646301,341.267517 626.540283,346.436462 
	C611.268494,350.796356 596.461670,356.980011 581.775635,363.135437 
	C569.729553,368.184326 557.727844,373.637787 546.490540,380.245392 
	C530.807068,389.467377 515.424500,399.340790 500.713348,410.036041 
	C487.062469,419.960449 473.683319,430.528442 461.600739,442.270355 
	C447.213196,456.252289 434.090332,471.573517 420.864471,486.703430 
	C403.947052,506.056366 390.553131,527.911621 378.346008,550.395874 
	C367.144958,571.026917 357.489319,592.446594 350.507019,614.951538 
	C346.935577,626.462769 342.760040,637.849609 340.150055,649.580261 
	C336.743805,664.890076 334.331207,680.442383 332.034973,695.970825 
	C330.244781,708.076782 328.743347,720.277405 328.108765,732.487671 
	C327.478546,744.612793 328.091766,756.802490 327.974060,769.889526 
	C327.974060,904.477966 327.974060,1039.066406 327.974060,1173.719604 
	C610.320618,1173.719604 891.907349,1173.719604 1173.782959,1173.719604 
	C1173.863647,1171.998413 1173.991699,1170.539185 1173.991821,1169.079834 
	C1174.000977,1031.247681 1174.003296,893.415466 1173.960815,755.583313 
	C1173.960327,754.048889 1173.366577,752.514648 1173.005737,750.047363 
	C1173.535034,727.297852 1172.734985,704.622070 1167.971191,682.293152 
	C1164.006348,663.709839 1160.469116,644.965088 1155.153442,626.755676 
	C1145.630737,594.134521 1131.668945,563.371338 1114.166870,534.126709 
	C1096.827148,505.153046 1076.188843,478.829407 1052.914062,454.532532 
	C1044.737305,445.996613 1035.901978,438.016602 1026.812866,430.448761 
	C1015.740967,421.230011 1004.292358,412.427307 992.635864,403.954895 
	C970.326538,387.739655 946.344727,374.310425 920.968933,363.571869 
	C905.772156,357.140900 890.361694,350.968536 874.581482,346.231628 
	C858.705627,341.465973 842.382141,337.832794 826.017639,335.149841 
	C808.166565,332.223267 790.043152,330.957794 771.589844,328.220886 
	C758.701538,328.161621 745.813293,328.088654 732.924988,328.082153 
	C732.252991,328.081818 731.580811,328.647858 729.987366,328.993652 
z"/>
<path fill="#70798F" opacity="1.000000" stroke="none" 
	d="
M1173.049683,750.980286 
	C1173.366577,752.514648 1173.960327,754.048889 1173.960815,755.583313 
	C1174.003296,893.415466 1174.000977,1031.247681 1173.991821,1169.079834 
	C1173.991699,1170.539185 1173.863647,1171.998413 1173.782959,1173.719604 
	C891.907349,1173.719604 610.320618,1173.719604 327.974060,1173.719604 
	C327.974060,1039.066406 327.974060,904.477966 328.200256,769.040527 
	C328.598236,765.874512 328.869141,763.559875 328.925049,761.239990 
	C329.204651,749.647766 327.449921,751.019653 339.497101,751.018311 
	C617.347961,750.987427 895.198792,750.986633 1173.049683,750.980286 
M823.106750,823.327942 
	C807.906921,827.062683 800.517090,836.549561 800.162415,853.489929 
	C799.904541,865.807922 799.938416,878.139465 800.170227,890.458740 
	C800.539368,910.081726 809.379272,918.979553 828.990784,919.896057 
	C830.155029,919.950439 831.321838,919.946472 832.486328,919.996582 
	C841.694214,920.392578 850.644958,919.309021 859.746948,914.253357 
	C859.746948,918.817566 859.904175,922.265076 859.712524,925.693054 
	C859.365723,931.894714 857.127747,933.973022 851.094482,932.773438 
	C848.613220,932.279968 846.510803,929.919006 844.216125,928.438477 
	C841.923950,926.959595 839.679504,924.420959 837.287537,924.262939 
	C829.329834,923.736938 821.306702,923.847656 813.325317,924.151978 
	C807.489197,924.374573 803.616150,928.093750 803.640747,933.594299 
	C803.705017,947.963440 810.394043,961.124084 826.176086,962.541809 
	C843.652771,964.111694 861.422302,963.675110 878.979675,962.654846 
	C890.819031,961.966858 898.163330,953.941711 900.748291,942.364563 
	C901.824585,937.544067 902.116028,932.467834 902.136414,927.505249 
	C902.258606,897.695801 902.203308,867.885559 902.187561,838.075623 
	C902.186523,836.080688 902.203491,834.057617 901.898315,832.096436 
	C901.086548,826.878479 897.751587,823.305847 892.650757,823.193237 
	C883.841675,822.998779 875.019653,823.346558 866.203979,823.514587 
	C861.225342,823.609436 856.246033,823.976562 851.271362,823.907837 
	C842.163757,823.782104 833.059387,823.424316 823.106750,823.327942 
M688.798218,890.499146 
	C688.886658,895.661804 688.697327,900.846985 689.115051,905.982849 
	C690.423889,922.070984 700.428406,932.419861 715.868469,932.866394 
	C731.679993,933.323608 747.524353,933.308899 763.336975,932.872253 
	C778.137573,932.463501 788.093079,923.326721 789.880493,908.634155 
	C790.861389,900.571655 790.883423,892.357300 790.842712,884.213928 
	C790.781128,871.901794 790.953918,859.529297 789.805420,847.297058 
	C788.425415,832.599548 778.760376,823.706848 764.005005,823.012756 
	C749.876160,822.348145 735.701843,822.337891 721.554565,822.537964 
	C716.304321,822.612183 710.781860,823.305481 705.892029,825.101013 
	C693.613831,829.609436 689.310181,839.899841 688.938904,852.018250 
	C688.556458,864.501770 688.817871,877.004883 688.798218,890.499146 
M651.099304,809.501099 
	C651.096130,805.334778 651.137634,801.167908 651.080872,797.002319 
	C650.946594,787.140198 647.621643,783.585938 637.950378,783.386902 
	C629.621460,783.215454 621.283203,783.212402 612.954407,783.388123 
	C603.108398,783.595947 599.862732,786.978027 599.827820,796.898071 
	C599.763184,815.229614 599.799072,833.561584 599.801025,851.893372 
	C599.803528,874.558105 599.755676,897.223145 599.851685,919.887512 
	C599.887329,928.305115 603.134216,932.370667 610.736572,932.477173 
	C630.062622,932.747986 649.397156,932.718994 668.723755,932.465515 
	C675.556519,932.375854 679.391541,928.644897 679.708862,921.928345 
	C680.117188,913.284424 680.142761,904.588257 679.689148,895.948364 
	C679.311279,888.750854 675.200928,885.389587 667.853821,885.166748 
	C664.357056,885.060669 660.834229,884.889404 657.360352,885.184631 
	C652.624023,885.587219 650.965820,883.860413 651.009827,878.994019 
	C651.216614,856.164490 651.100403,833.332031 651.099304,809.501099 
z"/>
<path fill="#B0B9C6" opacity="1.000000" stroke="none" 
	d="
M1173.027710,750.513794 
	C895.198792,750.986633 617.347961,750.987427 339.497101,751.018311 
	C327.449921,751.019653 329.204651,749.647766 328.925049,761.239990 
	C328.869141,763.559875 328.598236,765.874512 328.293060,768.577759 
	C328.091766,756.802490 327.478546,744.612793 328.108765,732.487671 
	C328.743347,720.277405 330.244781,708.076782 332.034973,695.970825 
	C334.331207,680.442383 336.743805,664.890076 340.150055,649.580261 
	C342.760040,637.849609 346.935577,626.462769 350.507019,614.951538 
	C357.489319,592.446594 367.144958,571.026917 378.346008,550.395874 
	C390.553131,527.911621 403.947052,506.056366 420.864471,486.703430 
	C434.090332,471.573517 447.213196,456.252289 461.600739,442.270355 
	C473.683319,430.528442 487.062469,419.960449 500.713348,410.036041 
	C515.424500,399.340790 530.807068,389.467377 546.490540,380.245392 
	C557.727844,373.637787 569.729553,368.184326 581.775635,363.135437 
	C596.461670,356.980011 611.268494,350.796356 626.540283,346.436462 
	C644.646301,341.267517 663.183105,337.318848 681.758301,334.169342 
	C697.669739,331.471436 713.898804,330.646790 730.921631,328.971619 
	C745.250061,328.955811 758.644287,328.962036 772.038452,328.968231 
	C790.043152,330.957794 808.166565,332.223267 826.017639,335.149841 
	C842.382141,337.832794 858.705627,341.465973 874.581482,346.231628 
	C890.361694,350.968536 905.772156,357.140900 920.968933,363.571869 
	C946.344727,374.310425 970.326538,387.739655 992.635864,403.954895 
	C1004.292358,412.427307 1015.740967,421.230011 1026.812866,430.448761 
	C1035.901978,438.016602 1044.737305,445.996613 1052.914062,454.532532 
	C1076.188843,478.829407 1096.827148,505.153046 1114.166870,534.126709 
	C1131.668945,563.371338 1145.630737,594.134521 1155.153442,626.755676 
	C1160.469116,644.965088 1164.006348,663.709839 1167.971191,682.293152 
	C1172.734985,704.622070 1173.535034,727.297852 1173.027710,750.513794 
M603.619263,671.183899 
	C610.558716,665.091919 613.897278,657.200439 614.061829,648.193848 
	C614.326477,633.704407 614.568481,619.184570 613.935242,604.716187 
	C613.108276,585.819702 601.615112,575.197937 582.612610,575.045837 
	C562.448669,574.884399 542.282349,574.971069 522.117249,575.020325 
	C514.135376,575.039795 510.195404,578.619263 510.174500,586.486938 
	C510.068756,626.317017 510.063080,666.147766 510.183624,705.977783 
	C510.207581,713.901062 513.987000,717.386047 522.070679,717.611938 
	C528.398621,717.788696 534.737000,717.753052 541.067627,717.639893 
	C550.095886,717.478577 553.658508,713.863586 553.811951,704.703552 
	C553.929199,697.705872 554.040283,690.697815 553.781799,683.708130 
	C553.624939,679.464905 554.870483,677.722107 559.400635,677.914795 
	C567.052734,678.240356 574.732971,678.147827 582.393982,677.947937 
	C589.817017,677.754272 596.979553,676.383118 603.619263,671.183899 
M788.107300,612.099609 
	C787.908997,613.613525 787.710693,615.127502 787.461975,617.026123 
	C776.393311,611.895264 765.547119,611.075989 754.475525,612.838196 
	C741.672180,614.876038 734.077454,622.086060 732.187622,634.972839 
	C731.107605,642.337280 731.139526,649.907898 731.176331,657.383240 
	C731.237793,669.864136 730.940674,682.420654 732.200073,694.802368 
	C733.668701,709.241699 743.141052,717.540405 757.700317,717.967041 
	C765.446106,718.194031 773.231140,716.824707 781.008728,716.341431 
	C784.808289,716.105286 788.644043,716.035828 792.440979,716.264526 
	C799.710449,716.702209 806.955811,717.749573 814.225830,717.920715 
	C825.281311,718.181091 828.993042,714.324707 828.998108,703.404724 
	C829.013733,669.742004 829.005676,636.079224 829.003906,602.416504 
	C829.003662,597.083862 829.117432,591.747070 828.949097,586.419495 
	C828.706482,578.739563 825.009277,575.128784 817.433716,575.021851 
	C811.768860,574.941833 806.101685,574.966980 800.436035,575.010376 
	C791.968201,575.075317 788.288330,578.655334 788.154358,587.190063 
	C788.028748,595.187195 788.116821,603.187744 788.107300,612.099609 
M860.345337,717.505554 
	C869.119263,717.297119 877.893372,717.096375 886.667053,716.876648 
	C890.466858,716.781494 894.270752,716.463074 898.063965,716.567871 
	C907.041443,716.815796 916.014282,717.549866 924.987732,717.528748 
	C932.507385,717.510986 935.804932,714.025085 936.545715,706.549255 
	C936.693176,705.061523 936.683594,703.554565 936.684021,702.056519 
	C936.691833,677.570190 936.715820,653.083862 936.653625,628.597656 
	C936.646545,625.787659 936.468628,622.899292 935.799438,620.188049 
	C934.747559,615.925842 931.913879,612.847595 927.349243,613.021912 
	C917.595337,613.394287 907.863708,614.321411 898.116394,614.914001 
	C895.359741,615.081604 892.561890,615.072510 889.815308,614.808167 
	C881.749939,614.031860 873.658386,612.080750 865.654236,612.418152 
	C849.356567,613.105103 839.669373,622.861633 839.108093,639.154663 
	C838.506409,656.620178 838.579102,674.138733 839.173401,691.606384 
	C839.652466,705.684875 846.393311,713.449402 860.345337,717.505554 
M622.998474,644.588989 
	C623.008606,659.251831 622.787231,673.919373 623.085938,688.576355 
	C623.481689,707.994385 633.895569,718.100464 653.148315,718.187683 
	C666.811157,718.249573 680.476868,718.343628 694.137085,718.141663 
	C709.886963,717.908813 719.214355,709.566772 721.646362,693.981995 
	C722.967285,685.517334 719.243103,680.723450 710.744934,680.422058 
	C704.088074,680.185913 697.415039,680.444214 690.753052,680.301392 
	C686.774719,680.216064 683.578735,681.453125 681.258118,684.739746 
	C678.789612,688.235779 675.352173,689.353271 671.217346,688.979126 
	C666.423401,688.545227 665.295471,686.405701 665.271057,679.437256 
	C665.255371,674.948181 667.789185,674.832275 671.086975,674.850098 
	C684.083191,674.920288 697.080811,674.947449 710.076538,674.836609 
	C718.333252,674.766174 721.974670,671.156982 722.094360,662.886047 
	C722.205139,655.225342 722.308472,647.541931 721.863525,639.900574 
	C720.908936,623.506165 712.765259,613.747192 696.888184,612.655945 
	C680.649902,611.539795 664.253662,612.001892 647.961426,612.649780 
	C637.603638,613.061584 629.349854,618.236816 625.780884,628.505798 
	C624.118591,633.288696 623.882324,638.567322 622.998474,644.588989 
M950.042603,577.480774 
	C948.919617,581.352112 946.845947,585.217346 946.821045,589.095703 
	C946.576965,627.057434 946.673096,665.021423 946.680603,702.984741 
	C946.680908,704.482056 946.681335,705.986938 946.820435,707.475342 
	C947.402710,713.708069 950.378723,717.144409 956.551880,717.410095 
	C965.023560,717.774658 973.533936,717.754211 982.006714,717.399109 
	C987.492920,717.169189 990.406799,714.151428 991.481934,708.754944 
	C991.835938,706.977966 991.859436,705.114685 991.860413,703.290771 
	C991.881042,665.160950 991.877136,627.031067 991.874329,588.901245 
	C991.874268,587.902649 991.884277,586.899841 991.802612,585.906128 
	C991.203064,578.607300 987.541260,575.107239 980.212219,575.023682 
	C972.886902,574.940125 965.554016,574.838501 958.236816,575.096130 
	C955.690063,575.185791 953.180237,576.324768 950.042603,577.480774 
z"/>
<path fill="#D4D9E0" opacity="1.000000" stroke="none" 
	d="
M771.814148,328.594574 
	C758.644287,328.962036 745.250061,328.955811 731.382324,328.949921 
	C731.580811,328.647858 732.252991,328.081818 732.924988,328.082153 
	C745.813293,328.088654 758.701538,328.161621 771.814148,328.594574 
z"/>
<path fill="#B0B9C6" opacity="1.000000" stroke="none" 
	d="
M823.530212,823.245605 
	C833.059387,823.424316 842.163757,823.782104 851.271362,823.907837 
	C856.246033,823.976562 861.225342,823.609436 866.203979,823.514587 
	C875.019653,823.346558 883.841675,822.998779 892.650757,823.193237 
	C897.751587,823.305847 901.086548,826.878479 901.898315,832.096436 
	C902.203491,834.057617 902.186523,836.080688 902.187561,838.075623 
	C902.203308,867.885559 902.258606,897.695801 902.136414,927.505249 
	C902.116028,932.467834 901.824585,937.544067 900.748291,942.364563 
	C898.163330,953.941711 890.819031,961.966858 878.979675,962.654846 
	C861.422302,963.675110 843.652771,964.111694 826.176086,962.541809 
	C810.394043,961.124084 803.705017,947.963440 803.640747,933.594299 
	C803.616150,928.093750 807.489197,924.374573 813.325317,924.151978 
	C821.306702,923.847656 829.329834,923.736938 837.287537,924.262939 
	C839.679504,924.420959 841.923950,926.959595 844.216125,928.438477 
	C846.510803,929.919006 848.613220,932.279968 851.094482,932.773438 
	C857.127747,933.973022 859.365723,931.894714 859.712524,925.693054 
	C859.904175,922.265076 859.746948,918.817566 859.746948,914.253357 
	C850.644958,919.309021 841.694214,920.392578 832.486328,919.996582 
	C831.321838,919.946472 830.155029,919.950439 828.990784,919.896057 
	C809.379272,918.979553 800.539368,910.081726 800.170227,890.458740 
	C799.938416,878.139465 799.904541,865.807922 800.162415,853.489929 
	C800.517090,836.549561 807.906921,827.062683 823.530212,823.245605 
M858.949158,874.378540 
	C858.899963,871.549500 858.993347,868.709351 858.775635,865.893372 
	C858.022461,856.152405 856.922791,855.270325 847.192993,856.179810 
	C847.027405,856.195374 846.787048,856.127258 846.705322,856.214294 
	C845.747620,857.235168 844.023743,858.260193 843.999634,859.318298 
	C843.818176,867.280334 843.822144,875.256653 844.169983,883.210815 
	C844.227905,884.536194 846.084167,886.690918 847.371948,886.908447 
	C856.379639,888.430298 857.788818,887.239197 858.735962,878.315186 
	C858.841187,877.322876 858.864380,876.321838 858.949158,874.378540 
z"/>
<path fill="#B0B9C6" opacity="1.000000" stroke="none" 
	d="
M688.797852,889.999268 
	C688.817871,877.004883 688.556458,864.501770 688.938904,852.018250 
	C689.310181,839.899841 693.613831,829.609436 705.892029,825.101013 
	C710.781860,823.305481 716.304321,822.612183 721.554565,822.537964 
	C735.701843,822.337891 749.876160,822.348145 764.005005,823.012756 
	C778.760376,823.706848 788.425415,832.599548 789.805420,847.297058 
	C790.953918,859.529297 790.781128,871.901794 790.842712,884.213928 
	C790.883423,892.357300 790.861389,900.571655 789.880493,908.634155 
	C788.093079,923.326721 778.137573,932.463501 763.336975,932.872253 
	C747.524353,933.308899 731.679993,933.323608 715.868469,932.866394 
	C700.428406,932.419861 690.423889,922.070984 689.115051,905.982849 
	C688.697327,900.846985 688.886658,895.661804 688.797852,889.999268 
M734.097900,860.089172 
	C733.576050,861.758606 732.621155,863.424072 732.606201,865.098083 
	C732.536499,872.883606 733.291138,880.717285 732.665405,888.445740 
	C732.039734,896.173889 731.442505,895.915222 740.075562,896.218994 
	C744.778137,896.384399 746.815918,894.589355 746.910583,890.075623 
	C747.045837,883.624451 747.735962,877.137695 747.277405,870.731445 
	C746.387024,858.293396 746.937683,859.884033 734.097900,860.089172 
z"/>
<path fill="#B0B9C6" opacity="1.000000" stroke="none" 
	d="
M651.099365,810.000854 
	C651.100403,833.332031 651.216614,856.164490 651.009827,878.994019 
	C650.965820,883.860413 652.624023,885.587219 657.360352,885.184631 
	C660.834229,884.889404 664.357056,885.060669 667.853821,885.166748 
	C675.200928,885.389587 679.311279,888.750854 679.689148,895.948364 
	C680.142761,904.588257 680.117188,913.284424 679.708862,921.928345 
	C679.391541,928.644897 675.556519,932.375854 668.723755,932.465515 
	C649.397156,932.718994 630.062622,932.747986 610.736572,932.477173 
	C603.134216,932.370667 599.887329,928.305115 599.851685,919.887512 
	C599.755676,897.223145 599.803528,874.558105 599.801025,851.893372 
	C599.799072,833.561584 599.763184,815.229614 599.827820,796.898071 
	C599.862732,786.978027 603.108398,783.595947 612.954407,783.388123 
	C621.283203,783.212402 629.621460,783.215454 637.950378,783.386902 
	C647.621643,783.585938 650.946594,787.140198 651.080872,797.002319 
	C651.137634,801.167908 651.096130,805.334778 651.099365,810.000854 
z"/>
<path fill="#FFFFFF" opacity="1.000000" stroke="none" 
	d="
M603.346313,671.423584 
	C596.979553,676.383118 589.817017,677.754272 582.393982,677.947937 
	C574.732971,678.147827 567.052734,678.240356 559.400635,677.914795 
	C554.870483,677.722107 553.624939,679.464905 553.781799,683.708130 
	C554.040283,690.697815 553.929199,697.705872 553.811951,704.703552 
	C553.658508,713.863586 550.095886,717.478577 541.067627,717.639893 
	C534.737000,717.753052 528.398621,717.788696 522.070679,717.611938 
	C513.987000,717.386047 510.207581,713.901062 510.183624,705.977783 
	C510.063080,666.147766 510.068756,626.317017 510.174500,586.486938 
	C510.195404,578.619263 514.135376,575.039795 522.117249,575.020325 
	C542.282349,574.971069 562.448669,574.884399 582.612610,575.045837 
	C601.615112,575.197937 613.108276,585.819702 613.935242,604.716187 
	C614.568481,619.184570 614.326477,633.704407 614.061829,648.193848 
	C613.897278,657.200439 610.558716,665.091919 603.346313,671.423584 
M569.525574,614.486511 
	C564.635254,614.486511 559.744873,614.486511 554.854858,614.486511 
	C554.854858,622.773010 554.854858,630.643860 554.854858,639.121277 
	C558.316406,639.121277 561.434937,639.151978 564.552673,639.115417 
	C573.035767,639.015930 573.787292,638.365662 574.436035,629.795044 
	C574.622437,627.333008 574.775818,624.695984 574.099976,622.386230 
	C573.318542,619.715515 571.604553,617.317627 569.525574,614.486511 
z"/>
<path fill="#FFFFFF" opacity="1.000000" stroke="none" 
	d="
M788.109009,611.643188 
	C788.116821,603.187744 788.028748,595.187195 788.154358,587.190063 
	C788.288330,578.655334 791.968201,575.075317 800.436035,575.010376 
	C806.101685,574.966980 811.768860,574.941833 817.433716,575.021851 
	C825.009277,575.128784 828.706482,578.739563 828.949097,586.419495 
	C829.117432,591.747070 829.003662,597.083862 829.003906,602.416504 
	C829.005676,636.079224 829.013733,669.742004 828.998108,703.404724 
	C828.993042,714.324707 825.281311,718.181091 814.225830,717.920715 
	C806.955811,717.749573 799.710449,716.702209 792.440979,716.264526 
	C788.644043,716.035828 784.808289,716.105286 781.008728,716.341431 
	C773.231140,716.824707 765.446106,718.194031 757.700317,717.967041 
	C743.141052,717.540405 733.668701,709.241699 732.200073,694.802368 
	C730.940674,682.420654 731.237793,669.864136 731.176331,657.383240 
	C731.139526,649.907898 731.107605,642.337280 732.187622,634.972839 
	C734.077454,622.086060 741.672180,614.876038 754.475525,612.838196 
	C765.547119,611.075989 776.393311,611.895264 787.461975,617.026123 
	C787.710693,615.127502 787.908997,613.613525 788.109009,611.643188 
M772.933350,674.182739 
	C772.730896,676.910522 772.528381,679.638245 772.279114,682.997253 
	C775.513916,682.997253 778.146057,682.816101 780.743042,683.040710 
	C784.417480,683.358521 785.959229,681.628662 785.979980,678.198486 
	C786.031006,669.771179 786.035767,661.343506 786.066101,652.916016 
	C786.079224,649.254639 784.478882,647.335327 780.610596,647.665710 
	C779.129089,647.792236 777.626831,647.744385 776.137085,647.690125 
	C773.148804,647.581238 772.212341,648.764099 772.411499,651.895813 
	C772.862854,658.996094 772.817261,666.127991 772.933350,674.182739 
z"/>
<path fill="#FFFFFF" opacity="1.000000" stroke="none" 
	d="
M859.930786,717.408203 
	C846.393311,713.449402 839.652466,705.684875 839.173401,691.606384 
	C838.579102,674.138733 838.506409,656.620178 839.108093,639.154663 
	C839.669373,622.861633 849.356567,613.105103 865.654236,612.418152 
	C873.658386,612.080750 881.749939,614.031860 889.815308,614.808167 
	C892.561890,615.072510 895.359741,615.081604 898.116394,614.914001 
	C907.863708,614.321411 917.595337,613.394287 927.349243,613.021912 
	C931.913879,612.847595 934.747559,615.925842 935.799438,620.188049 
	C936.468628,622.899292 936.646545,625.787659 936.653625,628.597656 
	C936.715820,653.083862 936.691833,677.570190 936.684021,702.056519 
	C936.683594,703.554565 936.693176,705.061523 936.545715,706.549255 
	C935.804932,714.025085 932.507385,717.510986 924.987732,717.528748 
	C916.014282,717.549866 907.041443,716.815796 898.063965,716.567871 
	C894.270752,716.463074 890.466858,716.781494 886.667053,716.876648 
	C877.893372,717.096375 869.119263,717.297119 859.930786,717.408203 
M893.112671,680.522278 
	C893.368591,671.762939 893.719421,663.004883 893.841370,654.243652 
	C893.904785,649.681946 891.912292,647.026306 886.812988,647.967163 
	C885.686401,648.175049 884.218567,647.595947 883.392456,648.129578 
	C882.041565,649.002136 880.154480,650.462769 880.116821,651.723816 
	C879.840210,660.993835 879.930420,670.276245 880.018677,679.553650 
	C880.028381,680.576355 880.801758,682.491577 881.142395,682.473999 
	C885.063477,682.271240 888.969360,681.774780 893.112671,680.522278 
z"/>
<path fill="#FFFFFF" opacity="1.000000" stroke="none" 
	d="
M622.999023,644.105103 
	C623.882324,638.567322 624.118591,633.288696 625.780884,628.505798 
	C629.349854,618.236816 637.603638,613.061584 647.961426,612.649780 
	C664.253662,612.001892 680.649902,611.539795 696.888184,612.655945 
	C712.765259,613.747192 720.908936,623.506165 721.863525,639.900574 
	C722.308472,647.541931 722.205139,655.225342 722.094360,662.886047 
	C721.974670,671.156982 718.333252,674.766174 710.076538,674.836609 
	C697.080811,674.947449 684.083191,674.920288 671.086975,674.850098 
	C667.789185,674.832275 665.255371,674.948181 665.271057,679.437256 
	C665.295471,686.405701 666.423401,688.545227 671.217346,688.979126 
	C675.352173,689.353271 678.789612,688.235779 681.258118,684.739746 
	C683.578735,681.453125 686.774719,680.216064 690.753052,680.301392 
	C697.415039,680.444214 704.088074,680.185913 710.744934,680.422058 
	C719.243103,680.723450 722.967285,685.517334 721.646362,693.981995 
	C719.214355,709.566772 709.886963,717.908813 694.137085,718.141663 
	C680.476868,718.343628 666.811157,718.249573 653.148315,718.187683 
	C633.895569,718.100464 623.481689,707.994385 623.085938,688.576355 
	C622.787231,673.919373 623.008606,659.251831 622.999023,644.105103 
M671.601685,655.128845 
	C674.284668,654.454834 678.572021,654.577148 679.370667,652.967834 
	C682.693176,646.273499 677.981628,640.722656 670.520386,641.600708 
	C664.931519,642.258423 665.619324,646.423706 665.302551,650.192383 
	C664.960144,654.265137 667.003052,655.542175 671.601685,655.128845 
z"/>
<path fill="#FFFFFF" opacity="1.000000" stroke="none" 
	d="
M950.348022,577.232666 
	C953.180237,576.324768 955.690063,575.185791 958.236816,575.096130 
	C965.554016,574.838501 972.886902,574.940125 980.212219,575.023682 
	C987.541260,575.107239 991.203064,578.607300 991.802612,585.906128 
	C991.884277,586.899841 991.874268,587.902649 991.874329,588.901245 
	C991.877136,627.031067 991.881042,665.160950 991.860413,703.290771 
	C991.859436,705.114685 991.835938,706.977966 991.481934,708.754944 
	C990.406799,714.151428 987.492920,717.169189 982.006714,717.399109 
	C973.533936,717.754211 965.023560,717.774658 956.551880,717.410095 
	C950.378723,717.144409 947.402710,713.708069 946.820435,707.475342 
	C946.681335,705.986938 946.680908,704.482056 946.680603,702.984741 
	C946.673096,665.021423 946.576965,627.057434 946.821045,589.095703 
	C946.845947,585.217346 948.919617,581.352112 950.348022,577.232666 
z"/>
<path fill="#70798F" opacity="1.000000" stroke="none" 
	d="
M858.937378,874.851685 
	C858.864380,876.321838 858.841187,877.322876 858.735962,878.315186 
	C857.788818,887.239197 856.379639,888.430298 847.371948,886.908447 
	C846.084167,886.690918 844.227905,884.536194 844.169983,883.210815 
	C843.822144,875.256653 843.818176,867.280334 843.999634,859.318298 
	C844.023743,858.260193 845.747620,857.235168 846.705322,856.214294 
	C846.787048,856.127258 847.027405,856.195374 847.192993,856.179810 
	C856.922791,855.270325 858.022461,856.152405 858.775635,865.893372 
	C858.993347,868.709351 858.899963,871.549500 858.937378,874.851685 
z"/>
<path fill="#70798F" opacity="1.000000" stroke="none" 
	d="
M734.531738,860.026245 
	C746.937683,859.884033 746.387024,858.293396 747.277405,870.731445 
	C747.735962,877.137695 747.045837,883.624451 746.910583,890.075623 
	C746.815918,894.589355 744.778137,896.384399 740.075562,896.218994 
	C731.442505,895.915222 732.039734,896.173889 732.665405,888.445740 
	C733.291138,880.717285 732.536499,872.883606 732.606201,865.098083 
	C732.621155,863.424072 733.576050,861.758606 734.531738,860.026245 
z"/>
<path fill="#B1BAC7" opacity="1.000000" stroke="none" 
	d="
M569.910522,614.643921 
	C571.604553,617.317627 573.318542,619.715515 574.099976,622.386230 
	C574.775818,624.695984 574.622437,627.333008 574.436035,629.795044 
	C573.787292,638.365662 573.035767,639.015930 564.552673,639.115417 
	C561.434937,639.151978 558.316406,639.121277 554.854858,639.121277 
	C554.854858,630.643860 554.854858,622.773010 554.854858,614.486511 
	C559.744873,614.486511 564.635254,614.486511 569.910522,614.643921 
z"/>
<path fill="#B1BAC7" opacity="1.000000" stroke="none" 
	d="
M772.953552,673.714905 
	C772.817261,666.127991 772.862854,658.996094 772.411499,651.895813 
	C772.212341,648.764099 773.148804,647.581238 776.137085,647.690125 
	C777.626831,647.744385 779.129089,647.792236 780.610596,647.665710 
	C784.478882,647.335327 786.079224,649.254639 786.066101,652.916016 
	C786.035767,661.343506 786.031006,669.771179 785.979980,678.198486 
	C785.959229,681.628662 784.417480,683.358521 780.743042,683.040710 
	C778.146057,682.816101 775.513916,682.997253 772.279114,682.997253 
	C772.528381,679.638245 772.730896,676.910522 772.953552,673.714905 
z"/>
<path fill="#B1BAC7" opacity="1.000000" stroke="none" 
	d="
M892.995972,680.939392 
	C888.969360,681.774780 885.063477,682.271240 881.142395,682.473999 
	C880.801758,682.491577 880.028381,680.576355 880.018677,679.553650 
	C879.930420,670.276245 879.840210,660.993835 880.116821,651.723816 
	C880.154480,650.462769 882.041565,649.002136 883.392456,648.129578 
	C884.218567,647.595947 885.686401,648.175049 886.812988,647.967163 
	C891.912292,647.026306 893.904785,649.681946 893.841370,654.243652 
	C893.719421,663.004883 893.368591,671.762939 892.995972,680.939392 
z"/>
<path fill="#B1BAC7" opacity="1.000000" stroke="none" 
	d="
M671.143433,655.127441 
	C667.003052,655.542175 664.960144,654.265137 665.302551,650.192383 
	C665.619324,646.423706 664.931519,642.258423 670.520386,641.600708 
	C677.981628,640.722656 682.693176,646.273499 679.370667,652.967834 
	C678.572021,654.577148 674.284668,654.454834 671.143433,655.127441 
z"/>
</svg>