<svg version="1.1" id="Layer_1" xmlns="http://www.w3.org/2000/svg" xmlns:xlink="http://www.w3.org/1999/xlink" x="0px" y="0px"
	 width="100%" viewBox="0 0 1500 1500" enable-background="new 0 0 1500 1500" xml:space="preserve">
<path fill="#FFFFFF" opacity="1.000000" stroke="none" 
	d="
M735.000000,1501.000000 
	C490.000031,1501.000000 245.500092,1501.000000 1.000098,1501.000000 
	C1.000066,1001.000122 1.000066,501.000275 1.000033,1.000300 
	C500.999786,1.000200 1000.999573,1.000200 1500.999512,1.000100 
	C1500.999756,500.999664 1500.999756,1000.999329 1500.999878,1500.999512 
	C1245.833374,1501.000000 990.666687,1501.000000 735.000000,1501.000000 
M328.109894,769.984436 
	C328.073334,771.483398 328.004761,772.982300 328.004700,774.481262 
	C327.999756,906.115784 327.999146,1037.750366 328.011719,1169.384888 
	C328.011871,1170.823120 328.189209,1172.261353 328.282410,1173.678467 
	C610.316284,1173.678467 891.984802,1173.678467 1173.839355,1173.678467 
	C1173.902832,1172.392212 1173.993408,1171.417358 1173.993408,1170.442505 
	C1173.999878,1031.976318 1174.002441,893.510010 1173.963135,755.043762 
	C1173.962769,753.656616 1173.405151,752.269531 1173.030640,749.964722 
	C1173.560547,730.517395 1172.956665,711.071411 1169.742920,691.903442 
	C1166.850342,674.650330 1163.190552,657.477966 1158.890381,640.518250 
	C1148.168945,598.232910 1130.386230,558.949707 1106.735474,522.336731 
	C1087.861328,493.118073 1065.798340,466.588226 1040.380859,442.737885 
	C1024.496094,427.832489 1007.573547,414.371521 989.735352,401.971069 
	C967.591980,386.577881 944.173157,373.403992 919.347717,362.927917 
	C904.712585,356.752045 889.820618,350.992004 874.647217,346.339508 
	C859.989380,341.845184 844.977722,337.986603 829.842102,335.691132 
	C807.483582,332.300293 784.915710,330.054199 762.361145,328.290771 
	C751.161865,327.415192 739.768555,328.335510 728.507935,329.102600 
	C714.660278,330.045929 700.797729,331.225464 687.051453,333.105927 
	C658.951111,336.950012 631.647461,344.100983 605.008545,353.900635 
	C580.637390,362.865997 557.242615,373.893921 534.988403,387.187408 
	C508.331970,403.110565 483.156525,421.266510 460.948395,442.987305 
	C446.027924,457.580475 431.847961,473.099274 418.733429,489.332367 
	C397.197296,515.989563 379.653809,545.254211 365.667419,576.648743 
	C356.065582,598.201538 348.018616,620.259155 342.082214,643.070251 
	C336.035919,666.303467 331.196899,689.788513 330.045166,713.842407 
	C329.164490,732.234680 328.780396,750.650696 328.109894,769.984436 
z"/>
<path fill="#70798F" opacity="1.000000" stroke="none" 
	d="
M1173.107666,750.882446 
	C1173.405151,752.269531 1173.962769,753.656616 1173.963135,755.043762 
	C1174.002441,893.510010 1173.999878,1031.976318 1173.993408,1170.442505 
	C1173.993408,1171.417358 1173.902832,1172.392212 1173.839355,1173.678467 
	C891.984802,1173.678467 610.316284,1173.678467 328.282410,1173.678467 
	C328.189209,1172.261353 328.011871,1170.823120 328.011719,1169.384888 
	C327.999146,1037.750366 327.999756,906.115784 328.004700,774.481262 
	C328.004761,772.982300 328.073334,771.483398 328.379333,769.181885 
	C328.648743,762.777039 328.648743,757.174744 328.648743,751.000000 
	C331.885376,751.000000 334.169281,751.000000 336.453186,751.000000 
	C612.840332,751.000000 889.227478,751.000366 1165.614624,750.995239 
	C1168.112305,750.995178 1170.609985,750.921692 1173.107666,750.882446 
M808.431458,830.944214 
	C802.092957,837.055237 800.409912,845.077942 800.150879,853.273682 
	C799.745911,866.089355 799.762817,878.936707 800.170593,891.752502 
	C800.402649,899.043701 801.724304,906.160583 807.205383,911.969360 
	C813.001404,918.111816 820.440002,919.370972 828.078186,919.860657 
	C838.881531,920.553345 849.691833,920.472412 859.906128,913.947327 
	C859.906128,918.506042 860.312927,922.199890 859.764526,925.745911 
	C859.392517,928.151855 858.091125,931.870789 856.476196,932.307739 
	C853.607117,933.084106 850.116943,932.074524 847.027344,931.271118 
	C845.822693,930.957947 845.181335,928.885315 843.962708,928.134827 
	C841.426208,926.572449 838.766174,924.464417 835.994507,924.183777 
	C830.057617,923.582581 824.017578,923.998779 818.019775,923.999390 
	C805.623657,924.000610 802.171204,927.990417 804.062561,940.127747 
	C806.027588,952.738342 815.610291,962.306152 828.130920,962.949463 
	C842.738037,963.700073 857.390320,963.912964 872.016541,963.754761 
	C876.865906,963.702332 882.007629,962.500916 886.471741,960.568298 
	C897.567261,955.765015 901.814087,946.027649 901.916565,934.726990 
	C902.218628,901.408630 902.085754,868.085938 902.050415,834.765076 
	C902.041748,826.644897 898.212769,822.888184 889.963013,823.040039 
	C878.997986,823.241821 868.035950,824.058838 857.077026,823.981812 
	C849.813904,823.930786 842.539124,822.084290 835.304565,822.287781 
	C825.930115,822.551331 816.156677,822.679504 808.431458,830.944214 
M688.918457,857.526245 
	C688.941650,873.180054 688.786377,888.836792 689.035767,904.487000 
	C689.311157,921.763367 700.507874,932.835388 717.655273,932.982849 
	C732.808228,933.113098 747.964294,933.113708 763.117004,932.965454 
	C777.272888,932.826965 789.177063,923.016235 789.760376,909.046509 
	C790.632080,888.167053 790.418396,867.208618 789.759094,846.312439 
	C789.410950,835.278931 780.860107,825.750977 770.039429,824.027161 
	C749.608948,820.772278 728.977722,820.747375 708.558289,824.204895 
	C699.768066,825.693237 693.679993,831.786316 691.186279,840.379578 
	C689.685852,845.549805 689.625549,851.137939 688.918457,857.526245 
M640.840576,783.221741 
	C631.684204,783.186707 622.525513,783.009949 613.372009,783.154663 
	C603.310974,783.313660 599.928528,786.852539 599.925964,796.778870 
	C599.915405,837.905640 599.909424,879.032349 599.934631,920.159119 
	C599.939819,928.619385 603.531189,932.720276 611.801025,932.813599 
	C630.280701,933.022156 648.766296,933.037537 667.245544,932.808899 
	C676.118347,932.699097 679.874695,928.510803 679.956238,919.677368 
	C680.022339,912.518250 680.030334,905.357422 679.954224,898.198547 
	C679.857971,889.148376 675.763916,885.090576 666.835815,885.057312 
	C661.740845,885.038330 656.645752,885.053833 651.044006,885.053833 
	C651.044006,882.370667 651.044067,880.407959 651.044006,878.445190 
	C651.042847,850.971863 651.061340,823.498535 651.027649,796.025208 
	C651.018433,788.522400 648.391418,785.092712 640.840576,783.221741 
z"/>
<path fill="#B0B9C6" opacity="1.000000" stroke="none" 
	d="
M1173.069092,750.423584 
	C1170.609985,750.921692 1168.112305,750.995178 1165.614624,750.995239 
	C889.227478,751.000366 612.840332,751.000000 336.453186,751.000000 
	C334.169281,751.000000 331.885376,751.000000 328.648743,751.000000 
	C328.648743,757.174744 328.648743,762.777039 328.412079,768.717773 
	C328.780396,750.650696 329.164490,732.234680 330.045166,713.842407 
	C331.196899,689.788513 336.035919,666.303467 342.082214,643.070251 
	C348.018616,620.259155 356.065582,598.201538 365.667419,576.648743 
	C379.653809,545.254211 397.197296,515.989563 418.733429,489.332367 
	C431.847961,473.099274 446.027924,457.580475 460.948395,442.987305 
	C483.156525,421.266510 508.331970,403.110565 534.988403,387.187408 
	C557.242615,373.893921 580.637390,362.865997 605.008545,353.900635 
	C631.647461,344.100983 658.951111,336.950012 687.051453,333.105927 
	C700.797729,331.225464 714.660278,330.045929 728.507935,329.102600 
	C739.768555,328.335510 751.161865,327.415192 762.361145,328.290771 
	C784.915710,330.054199 807.483582,332.300293 829.842102,335.691132 
	C844.977722,337.986603 859.989380,341.845184 874.647217,346.339508 
	C889.820618,350.992004 904.712585,356.752045 919.347717,362.927917 
	C944.173157,373.403992 967.591980,386.577881 989.735352,401.971069 
	C1007.573547,414.371521 1024.496094,427.832489 1040.380859,442.737885 
	C1065.798340,466.588226 1087.861328,493.118073 1106.735474,522.336731 
	C1130.386230,558.949707 1148.168945,598.232910 1158.890381,640.518250 
	C1163.190552,657.477966 1166.850342,674.650330 1169.742920,691.903442 
	C1172.956665,711.071411 1173.560547,730.517395 1173.069092,750.423584 
M510.047272,609.500000 
	C510.048309,641.478027 510.029205,673.455994 510.064911,705.434021 
	C510.073547,713.187195 513.861389,717.469910 521.378784,717.792480 
	C528.194702,718.084961 535.046204,718.117004 541.858459,717.783325 
	C550.274963,717.371094 553.769226,713.470825 553.915344,705.070251 
	C553.981995,701.240723 553.929016,697.409058 553.929382,693.578369 
	C553.929871,688.494934 553.929504,683.411499 553.929504,677.987488 
	C564.431030,677.987488 574.074158,678.136414 583.711060,677.955322 
	C601.621216,677.618835 613.756653,665.605835 614.037720,647.765869 
	C614.258118,633.779541 614.262329,619.783264 614.016296,605.797546 
	C613.677856,586.563782 602.017029,575.102661 582.926208,575.022339 
	C562.607178,574.936890 542.287598,574.984741 521.968262,575.007935 
	C513.932190,575.017090 510.156769,578.809692 510.066620,587.014954 
	C509.987946,594.175842 510.048401,601.338257 510.047272,609.500000 
M731.460571,638.171753 
	C731.664185,657.445435 731.290405,676.749207 732.290833,695.981445 
	C732.878357,707.278198 740.496399,715.363892 751.833191,716.902771 
	C760.890259,718.132202 770.284790,716.896362 779.528809,716.719238 
	C784.145752,716.630798 788.770752,716.211243 793.375183,716.386475 
	C801.488403,716.695190 809.589722,717.752380 817.694031,717.731323 
	C825.019348,717.712280 828.945984,713.561646 828.959167,706.542542 
	C829.035217,666.238586 829.033936,625.934326 828.951050,585.630371 
	C828.937378,578.973999 824.899597,575.129700 818.303772,575.022766 
	C812.143188,574.922852 805.979614,574.973755 799.817566,575.006592 
	C792.077515,575.047791 788.188843,578.835938 788.084167,586.675964 
	C787.970825,595.168274 788.072388,603.663330 788.039246,612.157043 
	C788.033264,613.689148 787.829773,615.220398 787.678589,617.282532 
	C778.608215,612.627747 769.630493,611.797363 760.379700,612.013428 
	C743.953979,612.397034 733.998901,621.053345 731.460571,638.171753 
M936.873718,635.517090 
	C936.578552,630.555176 936.632202,625.539551 935.879089,620.648132 
	C935.263977,616.653076 932.752930,613.156982 928.400574,613.120850 
	C917.819580,613.033142 907.118103,611.549316 896.718750,615.134827 
	C895.000122,615.727356 892.867859,615.351807 890.961487,615.128052 
	C882.771973,614.167114 874.593384,612.229492 866.414612,612.249268 
	C850.499756,612.287720 839.452698,623.098999 839.089539,638.689270 
	C838.678711,656.325439 838.692566,673.986145 839.108398,691.622314 
	C839.446838,705.975464 849.073486,716.954407 862.331726,717.750916 
	C871.041443,718.274170 879.857605,717.035767 888.625427,716.573914 
	C890.935486,716.452209 893.255920,716.052673 895.549683,716.179077 
	C904.155273,716.653076 912.744690,717.596008 921.353333,717.795349 
	C933.281555,718.071777 936.863708,714.311584 936.870117,702.436951 
	C936.881958,680.461853 936.873474,658.486816 936.873718,635.517090 
M715.314941,674.262085 
	C720.056458,672.593506 721.979248,668.952087 722.020691,664.228699 
	C722.092224,656.065430 722.214600,647.892700 721.921265,639.738159 
	C721.329346,623.281677 710.679749,612.468323 694.455872,612.126892 
	C680.132568,611.825439 665.793884,611.848450 651.469299,612.117493 
	C634.413086,612.437866 623.427795,623.093628 623.099426,639.855835 
	C622.769836,656.678040 622.729187,673.519226 623.127563,690.338745 
	C623.541321,707.807556 634.362244,718.013306 651.767944,718.076904 
	C666.597107,718.131042 681.434265,718.357666 696.254089,717.974060 
	C713.096008,717.538208 721.581360,704.987183 721.874146,689.993103 
	C721.967529,685.212097 719.251831,681.532654 714.268311,680.953552 
	C708.514709,680.285034 702.672180,680.397217 696.870361,680.125183 
	C690.084717,679.807129 683.914917,679.962402 679.307434,686.700500 
	C676.297729,691.101868 667.244385,689.994141 666.146851,685.785583 
	C665.296143,682.523376 665.331299,679.030273 664.898804,674.941772 
	C667.694946,674.941772 669.641479,674.955444 671.587769,674.939514 
	C685.904785,674.822388 700.221802,674.699280 715.314941,674.262085 
M982.853455,575.037842 
	C975.028625,575.024902 967.203735,574.999695 959.378906,575.002136 
	C949.883362,575.005127 946.880737,577.981201 946.873047,587.539673 
	C946.850403,615.676514 946.865051,643.813354 946.865417,671.950195 
	C946.865540,683.105042 946.829773,694.260071 946.878723,705.414673 
	C946.917114,714.165344 950.081238,717.546753 958.827087,717.820496 
	C965.646545,718.033997 972.479065,717.945007 979.303711,717.847290 
	C987.742065,717.726562 991.900391,713.641357 991.913452,705.167175 
	C991.974243,665.709106 991.954041,626.250854 991.924927,586.792664 
	C991.920715,581.045654 989.456665,576.891113 982.853455,575.037842 
z"/>
<path fill="#B0B9C6" opacity="1.000000" stroke="none" 
	d="
M808.685791,830.686401 
	C816.156677,822.679504 825.930115,822.551331 835.304565,822.287781 
	C842.539124,822.084290 849.813904,823.930786 857.077026,823.981812 
	C868.035950,824.058838 878.997986,823.241821 889.963013,823.040039 
	C898.212769,822.888184 902.041748,826.644897 902.050415,834.765076 
	C902.085754,868.085938 902.218628,901.408630 901.916565,934.726990 
	C901.814087,946.027649 897.567261,955.765015 886.471741,960.568298 
	C882.007629,962.500916 876.865906,963.702332 872.016541,963.754761 
	C857.390320,963.912964 842.738037,963.700073 828.130920,962.949463 
	C815.610291,962.306152 806.027588,952.738342 804.062561,940.127747 
	C802.171204,927.990417 805.623657,924.000610 818.019775,923.999390 
	C824.017578,923.998779 830.057617,923.582581 835.994507,924.183777 
	C838.766174,924.464417 841.426208,926.572449 843.962708,928.134827 
	C845.181335,928.885315 845.822693,930.957947 847.027344,931.271118 
	C850.116943,932.074524 853.607117,933.084106 856.476196,932.307739 
	C858.091125,931.870789 859.392517,928.151855 859.764526,925.745911 
	C860.312927,922.199890 859.906128,918.506042 859.906128,913.947327 
	C849.691833,920.472412 838.881531,920.553345 828.078186,919.860657 
	C820.440002,919.370972 813.001404,918.111816 807.205383,911.969360 
	C801.724304,906.160583 800.402649,899.043701 800.170593,891.752502 
	C799.762817,878.936707 799.745911,866.089355 800.150879,853.273682 
	C800.409912,845.077942 802.092957,837.055237 808.685791,830.686401 
M858.955139,866.765076 
	C858.629395,864.306152 858.693909,861.698547 857.834839,859.442749 
	C857.301025,858.041077 855.473694,856.415283 854.042114,856.215698 
	C850.658508,855.743958 847.164551,856.064148 844.196411,856.064148 
	C844.196411,866.605042 844.196411,876.578369 844.196411,887.055542 
	C847.752930,887.055542 850.877747,886.947205 853.991150,887.088989 
	C856.595703,887.207642 857.991272,886.520630 858.063721,883.562683 
	C858.193298,878.273682 858.651611,872.992676 858.955139,866.765076 
z"/>
<path fill="#B0B9C6" opacity="1.000000" stroke="none" 
	d="
M688.918274,857.032227 
	C689.625549,851.137939 689.685852,845.549805 691.186279,840.379578 
	C693.679993,831.786316 699.768066,825.693237 708.558289,824.204895 
	C728.977722,820.747375 749.608948,820.772278 770.039429,824.027161 
	C780.860107,825.750977 789.410950,835.278931 789.759094,846.312439 
	C790.418396,867.208618 790.632080,888.167053 789.760376,909.046509 
	C789.177063,923.016235 777.272888,932.826965 763.117004,932.965454 
	C747.964294,933.113708 732.808228,933.113098 717.655273,932.982849 
	C700.507874,932.835388 689.311157,921.763367 689.035767,904.487000 
	C688.786377,888.836792 688.941650,873.180054 688.918274,857.032227 
M746.531189,863.136536 
	C745.681152,862.084839 744.904419,860.208862 743.968201,860.125549 
	C740.105164,859.781738 736.193726,859.981445 732.551514,859.981445 
	C732.551514,872.451477 732.551514,884.069824 732.551514,896.056763 
	C735.145813,896.056763 737.446655,896.057983 739.747559,896.056396 
	C746.319885,896.051819 746.855591,895.728210 746.955444,889.177063 
	C747.083496,880.778992 746.864563,872.375610 746.531189,863.136536 
z"/>
<path fill="#B0B9C6" opacity="1.000000" stroke="none" 
	d="
M641.255676,783.334839 
	C648.391418,785.092712 651.018433,788.522400 651.027649,796.025208 
	C651.061340,823.498535 651.042847,850.971863 651.044006,878.445190 
	C651.044067,880.407959 651.044006,882.370667 651.044006,885.053833 
	C656.645752,885.053833 661.740845,885.038330 666.835815,885.057312 
	C675.763916,885.090576 679.857971,889.148376 679.954224,898.198547 
	C680.030334,905.357422 680.022339,912.518250 679.956238,919.677368 
	C679.874695,928.510803 676.118347,932.699097 667.245544,932.808899 
	C648.766296,933.037537 630.280701,933.022156 611.801025,932.813599 
	C603.531189,932.720276 599.939819,928.619385 599.934631,920.159119 
	C599.909424,879.032349 599.915405,837.905640 599.925964,796.778870 
	C599.928528,786.852539 603.310974,783.313660 613.372009,783.154663 
	C622.525513,783.009949 631.684204,783.186707 641.255676,783.334839 
z"/>
<path fill="#FFFFFF" opacity="1.000000" stroke="none" 
	d="
M510.047333,609.000000 
	C510.048401,601.338257 509.987946,594.175842 510.066620,587.014954 
	C510.156769,578.809692 513.932190,575.017090 521.968262,575.007935 
	C542.287598,574.984741 562.607178,574.936890 582.926208,575.022339 
	C602.017029,575.102661 613.677856,586.563782 614.016296,605.797546 
	C614.262329,619.783264 614.258118,633.779541 614.037720,647.765869 
	C613.756653,665.605835 601.621216,677.618835 583.711060,677.955322 
	C574.074158,678.136414 564.431030,677.987488 553.929504,677.987488 
	C553.929504,683.411499 553.929871,688.494934 553.929382,693.578369 
	C553.929016,697.409058 553.981995,701.240723 553.915344,705.070251 
	C553.769226,713.470825 550.274963,717.371094 541.858459,717.783325 
	C535.046204,718.117004 528.194702,718.084961 521.378784,717.792480 
	C513.861389,717.469910 510.073547,713.187195 510.064911,705.434021 
	C510.029205,673.455994 510.048309,641.478027 510.047333,609.000000 
M574.145630,631.683472 
	C574.011841,627.416260 574.320007,623.065613 573.537842,618.920715 
	C573.200745,617.134155 570.749695,614.656616 569.009888,614.433228 
	C564.198425,613.815491 559.255737,614.219421 554.590881,614.219421 
	C554.590881,622.750427 554.590881,630.631104 554.590881,639.017151 
	C558.953613,639.017151 563.250854,638.844971 567.528137,639.063110 
	C572.293030,639.306152 574.304626,637.136536 574.145630,631.683472 
z"/>
<path fill="#FFFFFF" opacity="1.000000" stroke="none" 
	d="
M731.590088,637.750000 
	C733.998901,621.053345 743.953979,612.397034 760.379700,612.013428 
	C769.630493,611.797363 778.608215,612.627747 787.678589,617.282532 
	C787.829773,615.220398 788.033264,613.689148 788.039246,612.157043 
	C788.072388,603.663330 787.970825,595.168274 788.084167,586.675964 
	C788.188843,578.835938 792.077515,575.047791 799.817566,575.006592 
	C805.979614,574.973755 812.143188,574.922852 818.303772,575.022766 
	C824.899597,575.129700 828.937378,578.973999 828.951050,585.630371 
	C829.033936,625.934326 829.035217,666.238586 828.959167,706.542542 
	C828.945984,713.561646 825.019348,717.712280 817.694031,717.731323 
	C809.589722,717.752380 801.488403,716.695190 793.375183,716.386475 
	C788.770752,716.211243 784.145752,716.630798 779.528809,716.719238 
	C770.284790,716.896362 760.890259,718.132202 751.833191,716.902771 
	C740.496399,715.363892 732.878357,707.278198 732.290833,695.981445 
	C731.290405,676.749207 731.664185,657.445435 731.590088,637.750000 
M783.059631,682.978149 
	C784.001709,682.035217 785.743958,681.107971 785.762695,680.147095 
	C785.959473,670.071106 785.957153,659.988220 785.748962,649.912659 
	C785.729858,648.987427 783.974060,647.423218 782.910522,647.318848 
	C779.494568,646.983643 776.024902,647.194153 772.571777,647.194153 
	C772.571777,659.370422 772.571777,670.983093 772.571777,682.998901 
	C775.890015,682.998901 779.020935,682.998901 783.059631,682.978149 
z"/>
<path fill="#FEFEFF" opacity="1.000000" stroke="none" 
	d="
M936.873535,636.014404 
	C936.873474,658.486816 936.881958,680.461853 936.870117,702.436951 
	C936.863708,714.311584 933.281555,718.071777 921.353333,717.795349 
	C912.744690,717.596008 904.155273,716.653076 895.549683,716.179077 
	C893.255920,716.052673 890.935486,716.452209 888.625427,716.573914 
	C879.857605,717.035767 871.041443,718.274170 862.331726,717.750916 
	C849.073486,716.954407 839.446838,705.975464 839.108398,691.622314 
	C838.692566,673.986145 838.678711,656.325439 839.089539,638.689270 
	C839.452698,623.098999 850.499756,612.287720 866.414612,612.249268 
	C874.593384,612.229492 882.771973,614.167114 890.961487,615.128052 
	C892.867859,615.351807 895.000122,615.727356 896.718750,615.134827 
	C907.118103,611.549316 917.819580,613.033142 928.400574,613.120850 
	C932.752930,613.156982 935.263977,616.653076 935.879089,620.648132 
	C936.632202,625.539551 936.578552,630.555176 936.873535,636.014404 
M883.664551,683.000671 
	C886.614624,683.000671 889.564697,683.000671 892.604248,683.000671 
	C895.220459,670.988586 895.539551,659.616150 892.589233,648.371826 
	C888.143860,648.371826 884.233826,648.371826 879.948914,648.371826 
	C879.948914,659.313232 879.884460,669.888306 880.069519,680.459045 
	C880.084656,681.318909 881.806091,682.148926 883.664551,683.000671 
z"/>
<path fill="#FEFEFF" opacity="1.000000" stroke="none" 
	d="
M714.926880,674.420044 
	C700.221802,674.699280 685.904785,674.822388 671.587769,674.939514 
	C669.641479,674.955444 667.694946,674.941772 664.898804,674.941772 
	C665.331299,679.030273 665.296143,682.523376 666.146851,685.785583 
	C667.244385,689.994141 676.297729,691.101868 679.307434,686.700500 
	C683.914917,679.962402 690.084717,679.807129 696.870361,680.125183 
	C702.672180,680.397217 708.514709,680.285034 714.268311,680.953552 
	C719.251831,681.532654 721.967529,685.212097 721.874146,689.993103 
	C721.581360,704.987183 713.096008,717.538208 696.254089,717.974060 
	C681.434265,718.357666 666.597107,718.131042 651.767944,718.076904 
	C634.362244,718.013306 623.541321,707.807556 623.127563,690.338745 
	C622.729187,673.519226 622.769836,656.678040 623.099426,639.855835 
	C623.427795,623.093628 634.413086,612.437866 651.469299,612.117493 
	C665.793884,611.848450 680.132568,611.825439 694.455872,612.126892 
	C710.679749,612.468323 721.329346,623.281677 721.921265,639.738159 
	C722.214600,647.892700 722.092224,656.065430 722.020691,664.228699 
	C721.979248,668.952087 720.056458,672.593506 714.926880,674.420044 
M677.238586,642.128418 
	C673.779053,642.371887 668.782104,641.322144 667.228760,643.168884 
	C665.026917,645.786621 665.363159,650.539124 664.554138,654.690186 
	C670.425293,654.690186 674.940063,654.690186 680.821289,654.690186 
	C679.751221,650.226074 678.834106,646.400085 677.238586,642.128418 
z"/>
<path fill="#FEFEFF" opacity="1.000000" stroke="none" 
	d="
M983.278198,575.081909 
	C989.456665,576.891113 991.920715,581.045654 991.924927,586.792664 
	C991.954041,626.250854 991.974243,665.709106 991.913452,705.167175 
	C991.900391,713.641357 987.742065,717.726562 979.303711,717.847290 
	C972.479065,717.945007 965.646545,718.033997 958.827087,717.820496 
	C950.081238,717.546753 946.917114,714.165344 946.878723,705.414673 
	C946.829773,694.260071 946.865540,683.105042 946.865417,671.950195 
	C946.865051,643.813354 946.850403,615.676514 946.873047,587.539673 
	C946.880737,577.981201 949.883362,575.005127 959.378906,575.002136 
	C967.203735,574.999695 975.028625,575.024902 983.278198,575.081909 
z"/>
<path fill="#717A90" opacity="1.000000" stroke="none" 
	d="
M858.963806,867.236694 
	C858.651611,872.992676 858.193298,878.273682 858.063721,883.562683 
	C857.991272,886.520630 856.595703,887.207642 853.991150,887.088989 
	C850.877747,886.947205 847.752930,887.055542 844.196411,887.055542 
	C844.196411,876.578369 844.196411,866.605042 844.196411,856.064148 
	C847.164551,856.064148 850.658508,855.743958 854.042114,856.215698 
	C855.473694,856.415283 857.301025,858.041077 857.834839,859.442749 
	C858.693909,861.698547 858.629395,864.306152 858.963806,867.236694 
z"/>
<path fill="#717A90" opacity="1.000000" stroke="none" 
	d="
M746.663208,863.555542 
	C746.864563,872.375610 747.083496,880.778992 746.955444,889.177063 
	C746.855591,895.728210 746.319885,896.051819 739.747559,896.056396 
	C737.446655,896.057983 735.145813,896.056763 732.551514,896.056763 
	C732.551514,884.069824 732.551514,872.451477 732.551514,859.981445 
	C736.193726,859.981445 740.105164,859.781738 743.968201,860.125549 
	C744.904419,860.208862 745.681152,862.084839 746.663208,863.555542 
z"/>
<path fill="#B1BAC7" opacity="1.000000" stroke="none" 
	d="
M574.113770,632.113342 
	C574.304626,637.136536 572.293030,639.306152 567.528137,639.063110 
	C563.250854,638.844971 558.953613,639.017151 554.590881,639.017151 
	C554.590881,630.631104 554.590881,622.750427 554.590881,614.219421 
	C559.255737,614.219421 564.198425,613.815491 569.009888,614.433228 
	C570.749695,614.656616 573.200745,617.134155 573.537842,618.920715 
	C574.320007,623.065613 574.011841,627.416260 574.113770,632.113342 
z"/>
<path fill="#B1BAC7" opacity="1.000000" stroke="none" 
	d="
M782.605713,682.988525 
	C779.020935,682.998901 775.890015,682.998901 772.571777,682.998901 
	C772.571777,670.983093 772.571777,659.370422 772.571777,647.194153 
	C776.024902,647.194153 779.494568,646.983643 782.910522,647.318848 
	C783.974060,647.423218 785.729858,648.987427 785.748962,649.912659 
	C785.957153,659.988220 785.959473,670.071106 785.762695,680.147095 
	C785.743958,681.107971 784.001709,682.035217 782.605713,682.988525 
z"/>
<path fill="#B1BAC7" opacity="1.000000" stroke="none" 
	d="
M883.199646,682.996704 
	C881.806091,682.148926 880.084656,681.318909 880.069519,680.459045 
	C879.884460,669.888306 879.948914,659.313232 879.948914,648.371826 
	C884.233826,648.371826 888.143860,648.371826 892.589233,648.371826 
	C895.539551,659.616150 895.220459,670.988586 892.604248,683.000671 
	C889.564697,683.000671 886.614624,683.000671 883.199646,682.996704 
z"/>
<path fill="#B1BAC7" opacity="1.000000" stroke="none" 
	d="
M677.577759,642.351257 
	C678.834106,646.400085 679.751221,650.226074 680.821289,654.690186 
	C674.940063,654.690186 670.425293,654.690186 664.554138,654.690186 
	C665.363159,650.539124 665.026917,645.786621 667.228760,643.168884 
	C668.782104,641.322144 673.779053,642.371887 677.577759,642.351257 
z"/>
</svg>